<?xml version="1.0" encoding="UTF-8"?>
<svg id="Layer_1" data-name="Layer 1" xmlns="http://www.w3.org/2000/svg" xmlns:xlink="http://www.w3.org/1999/xlink" viewBox="0 0 1791.08 497.63">
  <defs>
    <style>
      .cls-1 {
        fill: url(#linear-gradient);
      }

      .cls-2 {
        fill: #fc1d34;
      }

      .cls-3 {
        fill: #fc0335;
      }

      .cls-4 {
        fill: #010101;
      }

      .cls-5 {
        fill: #ff9f85;
      }

      .cls-6 {
        fill: #fff;
      }

      .cls-7 {
        fill: #fe4d2e;
      }

      .cls-8 {
        fill: #fd3132;
      }

      .cls-9 {
        fill: #ff8a0b;
      }

      .cls-10 {
        fill: #ff7520;
      }

      .cls-11 {
        fill: #ff8116;
      }

      .cls-12 {
        fill: #7f7f7f;
      }

      .cls-13 {
        fill: #bcd7a0;
      }

      .cls-14 {
        fill: #e0e0e0;
      }

      .cls-15 {
        fill: #99c26e;
      }

      .cls-16 {
        fill: url(#linear-gradient-3);
      }

      .cls-17 {
        fill: url(#linear-gradient-2);
      }
    </style>
    <linearGradient id="linear-gradient" x1="939.47" y1="483.11" x2="1212.13" y2="483.11" gradientUnits="userSpaceOnUse">
      <stop offset="0" stop-color="#fe4d2e"/>
      <stop offset="1" stop-color="#ff7520"/>
    </linearGradient>
    <linearGradient id="linear-gradient-2" x1="558" y1="482.74" x2="791.26" y2="482.74" gradientUnits="userSpaceOnUse">
      <stop offset="0" stop-color="#fc1d34"/>
      <stop offset="1" stop-color="#fe4d2e"/>
    </linearGradient>
    <linearGradient id="linear-gradient-3" x1="1455.4" y1="483.15" x2="1583.98" y2="483.15" gradientUnits="userSpaceOnUse">
      <stop offset="0" stop-color="#ff7520"/>
      <stop offset="1" stop-color="#ff8a0b"/>
    </linearGradient>
  </defs>
  <path class="cls-15" d="m1123.46,113.96c.1.98-.86,1.21-1.82,1.52-7.5,2.45-15.04,4.81-22.48,7.45-2.47.88-2.56-.67-3.15-2.11-4.66-11.45-8.81-23.08-15.55-33.61-16.55-25.84-40.19-41.71-69.09-50.79-9.9-3.11-19.96-3.92-30.12-4.4-27.12-1.28-54.28-1.13-81.42-1.69-26.79-.55-53.57-.41-80.36-.58-212.02-1.41-424.05-.51-636.08-.39-12.54,0-25.08.27-37.61.37-1.05,0-2.53.51-3.07-.48-.67-1.22.72-2.13,1.42-3.03,5.87-7.47,11.87-14.83,17.61-22.39,1.74-2.29,3.57-3.12,6.41-3.12,68.93-.01,137.87.15,206.8-.26,99.62-.6,199.23-.51,298.85-.15,55.89.2,111.79-.06,167.68.69,24.11.32,48.22.19,72.32.64,22.15.41,44.3.79,66.44,1.48,8.21.25,16.62.39,24.52,2.29,8.71,2.09,17.48,4.25,25.96,7.58,12.88,5.06,25.1,11.1,36.38,19.07,19.11,13.5,33.39,31.18,43.96,51.86,4.49,8.79,8.6,17.83,11.51,27.33.25.81.51,1.61.87,2.74Z"/>
  <path class="cls-6" d="m1289.92,230.51c7.23-9.94,16.44-17.34,28.08-21.46,10.67-3.77,21.56-5.1,32.97-3.92,6.91.72,13.72,1.43,20.32,3.55,17.5,5.63,29.08,17.34,35.07,34.63,2.66,7.67,4.07,15.57,4.45,23.73,1.54,32.57.25,65.14.67,97.71.08,6.08-.07,12.16-.12,18.24-.2.2-.39.4-.59.6-16.07.04-32.14.01-48.2.18-3.01.03-2.21-1.82-2.21-3.33-.02-23.14-.02-46.29-.02-69.43,0-9.87.05-19.73-.02-29.6-.04-5.27-.61-10.5-2.09-15.57-3.56-12.18-12.56-17.81-23.9-19.59-7.71-1.21-15.24-.9-22.51,2.11-12.42,5.13-18.47,15.12-20.83,27.8-1.39,7.44-.69,14.99-.71,22.48-.08,27.04-.11,54.08.06,81.13.02,3.49-1.06,4.06-4.2,4.02-15.46-.2-30.92-.17-46.38-.22-.18-.19-.35-.38-.53-.56-.05-1.21-.13-2.43-.13-3.64,0-88.18.01-176.36-.08-264.55,0-3.22.64-4.28,4.08-4.22,14.12.22,28.25.17,42.37.02,2.75-.03,3.38.67,3.37,3.39-.1,37.15-.07,74.3-.06,111.45,0,1.34.07,2.67.1,4.01-.12.68-.4,1.38.17,2,.29-.31.57-.63.86-.94Z"/>
  <path class="cls-6" d="m1575.96,209.79c1.18-1.13,2.5-1.56,4.21-1.55,13.02.08,26.05.02,39.07.05,4.95.01,6.22,1.24,6.23,6.25.03,54.43.03,108.85,0,163.28,0,4.54-1.29,5.87-5.85,5.9-13.27.07-26.53,0-39.8.02-3.81,0-4.59-2.44-4.62-5.52-.06-6.94-.1-13.87-.14-20.81.05-.23.11-.46.16-.69.42-.39.57-.88-.09-1.03-.52-.12-.78.39-.78.93l-.21.26.12.31c-3.04,2.44-4.18,6.24-6.65,9.17-7.93,9.44-18.19,14.75-29.7,18.07-10.46,3.01-21.26,3.39-31.88,2.05-12.57-1.59-24.19-6.37-34.79-13.54-14.29-9.67-24.76-22.4-32.09-38.02-7.34-15.65-9.3-32.21-7.76-48.98,2.58-28.11,15.41-50.98,38.83-67.07,11.1-7.63,23.66-12.21,37.33-13.66,14.2-1.5,27.95.07,41.06,5.42,10.1,4.12,18.54,10.67,23.85,20.6.27.5.82.85,1.24,1.27.18.7.39,1.53,1.32,1.22.44-.15.31-.83.05-1.29.09-7.28.19-14.57.28-21.85.2-.26.41-.52.61-.78Zm-47.14,131.53c29.49.89,46.58-19.85,46.82-44.49.28-27.55-16.13-47.82-50.61-46.71-10.96.35-20.64,5.28-28.56,13.11-10.48,10.35-13.69,23.1-12.73,37.45,1.41,21.2,21.15,41.65,45.08,40.64Z"/>
  <path class="cls-6" d="m709.25,315.8c6.38,15.29,18.71,23.23,34.09,26.88,11.95,2.84,24.06,1.72,36.07-.3,6.75-1.14,13.44-2.5,19.96-4.66,5.03-1.67,9.9-3.67,14.67-5.94,5.61-2.66,7.48-1.56,7.51,4.67.04,8.65.02,17.3,0,25.95,0,4.3-1.47,7.4-5.59,9.74-11.53,6.54-24.15,9.56-36.9,12.16-12.36,2.52-24.99,3.22-37.49,2.2-17.18-1.4-33.2-6.87-47.54-16.78-19.65-13.58-32.47-32.04-36.33-55.5-4.12-25.05-1.25-49.47,13.71-71.01,8.34-12.01,19.08-21.63,32.23-28.37,14.45-7.41,29.77-11.08,45.99-10.14,20.76,1.2,39.78,7.01,54.77,22.36,8.68,8.89,14.31,19.47,17.56,31.52,3.18,11.77,4.4,23.63,3.57,35.74-.14,2.02-.45,4.06-.95,6.03-1.01,4.01-4.21,5.35-7.85,5.78-2.29.27-4.62.15-6.93.15-33.37,0-66.73-.01-100.1.07-1.16,0-3.98-1.45-3.03,2.06-.09,2,.55,3.76,1.78,5.32l.24,1.29c-.19.53.07.74.55.8Zm73.69-41.37c-.9-3.95-1.58-7.44-3.18-10.61-8.92-17.68-27.5-22.92-45.19-18.4-13.39,3.42-21.56,12.91-26.71,25.38-1.24,3.01-.58,3.7,2.55,3.68,21.17-.1,42.34-.05,63.52-.05h9Z"/>
  <path class="cls-6" d="m68.44,306.97c.91,7.28,4.26,13.59,8.73,19.12,8.46,10.48,19.89,15.64,33.11,17.43,10.63,1.44,21.03.28,31.56-1.31,9.05-1.37,17.75-3.59,26.22-6.89,3.25-1.27,6.39-2.83,9.57-4.29,3.42-1.56,5.59-.53,5.64,3.18.15,10.11.09,20.22,0,30.32-.03,3.82-2.54,6.14-5.67,7.74-5.71,2.92-11.54,5.53-17.72,7.41-7.94,2.42-16.01,4.25-24.18,5.35-8.7,1.17-17.46,1.87-26.3,1.63-24.33-.66-45.93-8.65-63.86-25-14.11-12.87-22.69-29.19-26.14-48.2-1.62-8.9-2-17.86-1.22-26.68,1.87-21.34,10.05-40.12,25.11-55.66,11.79-12.16,26.23-19.97,42.41-23.96,9.7-2.39,19.79-3.05,30.06-2.02,12.93,1.3,25.16,4.25,36.3,10.83,11.21,6.62,20.03,15.63,25.83,27.57,7.86,16.21,10.65,33.26,9.58,51.09-.09,1.54-.44,3.08-.84,4.58-1.39,5.3-3.66,6.97-10.07,7-15.22.08-30.44.04-45.66.05-20.57.03-41.15.06-61.72.1-.48-.08-.91-.11-.73.61Zm38.31-32.54c11.8,0,23.61,0,35.41,0,1.52,0,3.19.19,2.33-2.24-2.32-6.52-4.57-12.87-9.89-17.98-10.08-9.66-22.09-11.72-34.98-9.47-15.13,2.64-24.38,12.53-29.84,26.5-1.11,2.84-.38,3.25,2.28,3.23,11.56-.09,23.12-.04,34.68-.04Z"/>
  <path class="cls-6" d="m1084.09,231.63c6.53-9.35,14.49-16.87,25.27-21.33,11.5-4.76,23.16-6.36,35.59-5.16,7.98.78,15.76,1.81,23.27,4.57,11.72,4.3,20.82,11.74,27.34,22.49,6.74,11.11,9.35,23.26,10.01,36,0,1.02-.74,2.17.51,2.97.05,17.05.13,34.1.16,51.15.03,18.39.02,36.78,0,55.17,0,5.02-1.19,6.22-6.19,6.23-12.54.02-25.08,0-37.62,0-6.54,0-7.29-.74-7.29-7.21,0-20.46,0-40.92,0-61.38,0-12.18.12-24.36-.08-36.54-.11-6.76-1.68-13.29-4.93-19.29-4.25-7.83-11.48-11.6-19.77-12.76-7.96-1.11-16.09-1.72-23.91,1.79-10.32,4.64-16.85,12.1-19.55,23.23-1.34,5.53-1.79,11.02-1.78,16.63,0,29.35,0,58.71,0,88.06,0,6.54-.98,7.49-7.63,7.49-12.3,0-24.59.01-36.89,0-5.14,0-6.2-1.05-6.2-6.1,0-54.32,0-108.64,0-162.96,0-5.47.92-6.4,6.23-6.41,12.05,0,24.11-.01,36.16,0,4.84,0,6.04,1.16,6.11,6.04.08,5.72.02,11.45.02,17.17-.28.56-.56,1.24.32,1.36.73.1.99-.51.84-1.23Z"/>
  <path class="cls-6" d="m259.65,231.35c7.19-10.6,16.69-18.57,28.78-22.58,10.32-3.43,20.99-5.14,32.17-3.66,6.25.83,12.46,1.46,18.58,3.12,12.46,3.38,22.54,10.16,29.97,20.69,6.68,9.45,10,20.15,11.38,31.59.87,7.19,1.45,14.36,1.44,21.6-.01,31.56,0,63.11,0,94.67,0,5.95-1.01,6.97-6.92,6.98-12.91.01-25.82,0-38.73,0-1.95,0-3.93.1-4.83-2.2-.18-.25-.36-.49-.54-.74-.05-13.52-.1-27.04-.14-40.56-.06-21.56-.11-43.12-.16-64.68,1.19-.92.59-1.29-.47-1.51-1.3-16.09-11.21-27.14-28.96-27.96-6.78-.31-13.17-.18-19.47,2.39-11.87,4.84-17.79,14.22-20.36,26.25-1.09,5.13-.89,10.33-.9,15.5-.04,28.51-.02,57.01-.02,85.52,0,7.18-.79,7.98-7.84,7.98-12.54,0-25.08.01-37.63-.01-4.14,0-5.1-.88-5.16-5.07-.1-6.7-.03-13.4-.03-20.1,0-47.63,0-95.26,0-142.9,0-6.95.45-7.39,7.47-7.39,11.32,0,22.65,0,33.97,0,5.9,0,6.96,1.07,7.02,6.96.05,4.99.11,9.98.17,14.97-.27.74-.62,1.64.17,2.1.58.35.79-.49,1.02-.95Z"/>
  <path class="cls-6" d="m1653.1,353.26c0-5.6-.07-11.21.02-16.81.06-4.04,1.06-4.68,4.59-2.94,12.87,6.35,26.38,10.51,40.66,12.19,10.22,1.2,20.48,2.07,30.49-.86,7.34-2.14,11.98-5.51,11.54-14.26-.21-4.06-2.52-6.42-5.63-8.34-5.68-3.51-12.2-4.75-18.49-6.51-12.78-3.58-25.58-6.99-37.39-13.27-11.9-6.32-21.67-14.72-25.61-28.15-5.99-20.43,0-40.62,17.12-53.41,11.66-8.71,24.89-13.32,39.34-14.93,6.71-.75,13.4-1.6,20.15-1.35,16.46.59,32.66,2.83,48.42,7.91,2.65.85,3.97,2.43,3.99,4.93.1,11.08.05,22.16.07,33.25,0,3.14-2.22,3.46-4.25,2.71-8.99-3.33-18.17-5.87-27.61-7.49-11.76-2.02-23.58-3.67-35.31-.29-4.69,1.35-8.95,3.7-10.77,9.05-1.06,3.13-.36,5.48,1.41,7.87,3.75,5.06,9.63,6.52,15.05,8.51,12.04,4.43,24.73,6.93,36.63,11.79,10.01,4.09,19.38,9.29,25.79,18.43,6.08,8.69,8.11,18.62,7.75,29.01-.89,25.57-15.95,43.04-40.3,51.28-12.76,4.32-25.92,5.57-39.3,5.38-17.45-.25-34.49-3.13-50.75-9.28-7.08-2.68-7.62-1.55-7.59-10.16.02-4.75,0-9.5,0-14.25Z"/>
  <path class="cls-6" d="m419.91,293.29c0-17.54-.07-31.79.06-46.04.02-2.55-.59-3.26-3.18-3.19-7.18.19-14.37.09-21.55.05-4.06-.02-5.26-1.29-5.27-5.44-.02-8.41-.03-16.81,0-25.22.02-3.87,1.35-5.16,5.2-5.17,7.06-.02,14.13-.13,21.19.06,2.73.07,3.65-.5,3.62-3.48-.17-15.59-.09-31.18-.08-46.78,0-5.17.94-6.09,6.12-6.09,12.42,0,24.84,0,37.26,0,6.47,0,7.47,1,7.48,7.62.01,15.11.07,30.21-.06,45.32-.02,2.64.49,3.47,3.32,3.43,13.15-.18,26.3-.09,39.45-.07,4.83,0,6.12,1.15,6.18,5.96.1,8.04.09,16.08,0,24.12-.05,4.46-1.45,5.74-6.06,5.75-13.27.03-26.55.03-39.82-.01-1.86,0-3.1-.09-3.07,2.56.3,25.82-.59,51.66.5,77.46.49,11.7,9.12,21.08,21.92,21.01,6.9-.04,13.64-1.2,20.47-1.6,6.07-.35,6.49.75,7.14,6.18,1.07,8.8.56,17.75.2,26.64-.12,3.05-2.39,4.9-4.9,5.66-6.11,1.86-12.34,3.28-18.73,4.03-8.28.97-16.58,1.75-24.89,1.29-14.34-.79-27.59-4.62-37.83-15.48-7.53-7.98-11.35-17.77-13.2-28.42-3.08-17.73-.63-35.62-1.5-50.13Z"/>
  <path class="cls-6" d="m847.06,229.5c0-37.14,0-74.29,0-111.43,0-6.64.72-7.38,7.27-7.39,12.29-.01,24.59,0,36.88,0,5.99,0,7.01.97,7.02,6.99.03,20.82.01,41.65.01,62.47,0,47.49-.02,94.99.03,142.48,0,3.95-.21,7.92,1.28,11.79,3.81,9.92,11.41,11.35,19.79,10.35,3.64-.44,7.21-1.4,10.74-2.51,3.27-1.03,4.55.02,4.58,3.54.1,9.74.14,19.49,0,29.23-.07,4.86-2.15,7.08-8.22,8.6-11.94,2.98-24.16,5.07-36.39,3.61-19.95-2.38-35.26-12.21-41.21-36.09-1.65-6.63-1.75-13.35-1.76-20.06-.08-33.85-.03-67.71-.03-101.57Z"/>
  <path class="cls-3" d="m472.48,496.59c-1.33.08-2.66.23-3.99.23-147.36-.24-294.72-.49-442.08-.75-1.33,0-2.65-.18-3.98-.27-.08-.57.02-1.39-.77-1.39-.8,0-.7.82-.77,1.39-5.57.43-11.14.47-16.71-.07.18-1.72-1.93-1.77-2.26-3.12,4.68-8.05,9.34-16.1,14.04-24.13,1.04-1.77,2.84-1.07,4.32-1.06,32.02.06,64.03.19,96.05.27,26.17.06,52.35.08,78.52.13,1.21,0,2.43.1,3.64.16.11.63-.21,1.64.75,1.64.96,0,.64-1.01.75-1.64,3.15,0,6.31,0,9.46.01.02,1.01.12,1.95,1.48,1.95,1.36,0,1.46-.94,1.48-1.95,3.64,0,7.28.01,10.92.02.11.62-.19,1.61.75,1.61.94,0,.64-.99.75-1.61,2.67,0,5.33,0,8,0,.11.62-.19,1.61.75,1.61.94,0,.65-.99.75-1.61,14.12-.04,28.24-.14,42.37-.12,60.89.07,121.78.17,182.67.27,1.45,0,2.89.21,4.33.32-.15,2.45,1.54,2.27,3.17,2.25,9.63-.1,19.16.73,28.58,2.86,1.88.42,2.14.93.84,2.2-1.94,1.9-1.68,3.91-.97,6.31.77,2.63.95,5.44,1.29,8.19.12.95,0,2.44-1.22,2.19-4.48-.91-8.5,1.83-13.09,1.16-3.23-.47-7.54-1.28-9.8,2.94Z"/>
  <path class="cls-6" d="m589.43,254.32c.9-5.38,3.55-10.2,6.05-14.78,7.95-14.54,18.76-26.17,35.24-31.46,5.71-1.83,11.48-2.93,17.38-3.38,4.12-.31,5.61,1.18,5.64,5.26.08,14.25.03,28.5.05,42.74,0,3.4-1.6,4.43-4.98,4.63-14.03.82-27.56,3.47-38.69,12.99-9.18,7.85-14.69,17.91-17.74,29.52-1.94,7.39-2.38,14.86-2.34,22.45.11,18.27.04,36.53.03,54.8,0,5.42-1.17,6.62-6.58,6.63-12.9.03-25.81.03-38.71,0-4.62-.01-5.81-1.23-5.81-5.78,0-54.56,0-109.12,0-163.67,0-4.93,1.08-6.01,5.91-6.01,12.42,0,24.83,0,37.25,0,4.8,0,6.04,1.16,6.07,6.06.06,13.27.02,26.55.02,39.82-.63,1.08-.16,2.24-.25,3.36.25-.04.5-.08.75-.12.32-1.01,1.15-1.89.7-3.07Z"/>
  <path class="cls-6" d="m953.66,295.93c0-26.8,0-53.59,0-80.39,0-6.68.59-7.26,7.28-7.26,12.66,0,25.32-.01,37.98,0,4.44,0,5.67,1.17,5.89,5.51.08,1.58.03,3.17.03,4.75,0,52.37,0,104.74,0,157.12,0,.97-.02,1.95-.02,2.92-.02,3.43-1.7,5.16-5.17,5.16-14-.02-28-.05-42,0-2.2,0-3.36-1.04-3.66-3.06-.23-1.56-.32-3.15-.32-4.72-.02-26.67-.01-53.35-.01-80.02Z"/>
  <path class="cls-1" d="m944.59,468.96c15.44-.62,30.88-.24,46.32-.24,68.23,0,136.47.08,204.7.15,1.56,0,3.17-.29,4.69.34,1.41,2.79,4.8,4.34,7.4,3.38,2.52-.93,4.6.41,4.2,3.08-.28,1.86.17,3.58.08,5.35-.21,4.05,1.15,8.4-1.6,12.02-1.07,1.41-1.36,2.76-1.3,4.37-7.29.07-14.58.21-21.87.21-80.89-.03-161.79-.08-242.68-.15-1.68,0-3.41.32-5.05-.34.04-.79.27-1.44,1.2-1.52,2.64-.25,5.29-.45,7.92-.77,4.44-.55,8.64-1.65,12.12-5.28-1.49-.52-3.3.67-3.57-1.39-.15-1.16.33-2.32,1.46-2.67,4.39-1.36,2.61-4.34,2.07-7.1-.46-2.33-3.16-1.2-3.94-2.65-2.13-3.98-5.58-4.69-9.59-4.28-1.85.19-2.78-.55-2.56-2.48Z"/>
  <path class="cls-10" d="m1209.08,497.41c-.06-1.6.23-2.95,1.3-4.37,2.74-3.61,1.38-7.96,1.6-12.02.09-1.77-.35-3.5-.08-5.35.4-2.66-1.69-4-4.2-3.08-2.6.96-6-.59-7.4-3.38,8.49-.83,17-.31,25.5-.32,34.31-.03,68.62.13,102.93.12,47.34-.01,94.67-.12,142.01-.17,2.18,0,4.36.23,6.54.35-.07.82.12,2.02-.98,2.07-2.54.12-4.96,1.34-7.55.83-3.29-.64-6.26,1.35-9.52,1.16-.61-.04-1.4.51-1.55,1.35-.78,4.55-1.57,9.09-2.26,13.65-.1.65.37,1.39.54,2.09.45,1.86,1.45,2.98,3.52,3.02,2.9.07.58-2.55,2.21-3.83,1.5,4.14,4.88,4.56,8.51,4.82,1.76.13,3.58.91,4.27,2.94-1.2.09-2.41.27-3.61.27-85.93.02-171.85.04-257.78.04-1.33,0-2.66-.14-3.99-.22Z"/>
  <path class="cls-9" d="m1582.46,497.09c-.46.3-.92.3-1.39,0-1.11-2.52-3.4-2.19-5.5-2.25-6.63-.18-13.19-.96-19.61-2.66-.85-.23-1.63-.27-2.47.04-3.3,1.24-4.11.54-4.65-3.07-.53-3.5.09-6.94.06-10.4-.04-4.64,1.86-5.75,6.44-5.68,4.11.07,8.32.3,12.45-1.07,2.93-.97,5.94-2.05,9.41-.25,2.29,1.19,5.21-.1,6.79-2.75,1.57-.1,3.13-.28,4.7-.29,48.75-.14,97.5-.25,146.25-.4,11.3-.03,22.6-.16,33.9-.25,2.21,1.86,4.41,1.99,6.58-.07,1.22-.02,2.44-.04,3.65-.05-.03,1.24,1.16,1.83,1.52,2.87-5.38,8.08-10.78,16.16-16.13,24.26-1.16,1.76-2.91,1.56-4.57,1.58-10.83.11-21.66.22-32.49.25-37.6.12-75.2.21-112.8.31-8.74.02-17.49.63-26.22-.16-2.31-2.83-4.49-2.83-5.92.01Z"/>
  <path class="cls-17" d="m769.21,468.75c.72,0,1.44,0,2.16,0,.47,4.07,3.82,3.12,6.14,3.13,3.77,0,6.5.51,8.31,4.59,1.43,3.23-.51,6.29.85,9.37.42-.11.86-.23,1.32-.33,1.49-.32,2.81-.1,3.02,1.65.15,1.25.75,2.88-.61,3.7-1.47.89-2.44-.23-3.17-1.5-.38-.66-.98-1.13-1.8-.91-.91.25-.91,1.07-.87,1.78.14,2.27-1.24,2.83-3.13,3.16-6.04,1.05-12.06,2.09-18.24,1.75-.94-.05-2.57.09-2.77,1.79-1.33.06-2.66.17-4,.17-64.93-.03-129.86-.08-194.8-.13-1.21,0-2.42-.13-3.63-.2-.05-2.38,1.7-1.88,3.09-1.92,7.16-.22,14.22-1.16,21.14-2.98,1.7-.44,4.06-1.16,3.34-3.45-.83-2.63.49-3.73,2.08-5.18,1.95-1.78,1.97-8.2.08-8.36-3.24-.26-5.73-2.72-8.79-2.62-4.41.15-8.67-1.01-13.06-.91-1.7.04-4.19.24-4.21-2.76,1.09-.07,2.17-.21,3.26-.21,66.63.06,133.26.13,199.9.2.97,0,1.94.11,2.9.16.11.62-.2,1.6.74,1.61.94,0,.64-.99.74-1.6Z"/>
  <path class="cls-7" d="m760.42,496.92c.2-1.7,1.83-1.84,2.77-1.79,6.18.34,12.2-.69,18.24-1.75,1.89-.33,3.27-.89,3.13-3.16-.05-.71-.04-1.54.87-1.78.82-.22,1.42.25,1.8.91.73,1.27,1.7,2.39,3.17,1.5,1.35-.82.75-2.46.61-3.7-.21-1.75-1.53-1.98-3.02-1.65-.45.1-.9.22-1.32.33-1.36-3.07.58-6.14-.85-9.37-1.81-4.08-4.54-4.58-8.31-4.59-2.32,0-5.67.94-6.14-3.13.72-.07,1.45-.19,2.17-.19,42.61.03,85.21.08,127.82.12,1.04,1.84,2.08,1.85,3.12,0,.67,0,1.33,0,2,0,1.53,1.89,3.05,1.89,4.58,0,11.18.12,22.36-.36,33.53.27-.22,1.93.71,2.66,2.56,2.48,4.01-.41,7.47.3,9.59,4.28.78,1.45,3.48.32,3.94,2.65.54,2.76,2.32,5.75-2.07,7.1-1.13.35-1.61,1.51-1.46,2.67.27,2.06,2.08.88,3.57,1.39-3.48,3.63-7.68,4.73-12.12,5.28-2.63.32-5.28.52-7.92.77-.93.09-1.16.74-1.2,1.52-1.2.11-2.4.32-3.6.32-57.52-.09-115.04-.2-172.56-.32-.97,0-1.93-.14-2.9-.21Z"/>
  <path class="cls-6" d="m944.55,142.6c-.69-14.93,11.46-29.78,30.95-29.33,17.34.39,31.71,10.07,30.43,32.53-.85,14.95-12.22,26.58-30.88,26.74-18.03.16-31.52-14.2-30.49-29.94Z"/>
  <path class="cls-16" d="m1583.98,469.01c-1.59,2.64-4.5,3.93-6.79,2.75-3.47-1.8-6.48-.72-9.41.25-4.14,1.37-8.35,1.13-12.45,1.07-4.58-.08-6.48,1.04-6.44,5.68.03,3.47-.59,6.9-.06,10.4.55,3.61,1.36,4.31,4.65,3.07.85-.32,1.62-.27,2.47-.04,6.42,1.7,12.98,2.48,19.61,2.66,2.09.06,4.39-.27,5.5,2.25-1.07.13-2.14.37-3.21.37-33.38.06-66.76.09-100.15.12-1.08,0-2.17-.17-3.25-.26-.69-2.04-2.5-2.82-4.27-2.94-3.63-.26-7.01-.68-8.51-4.82-1.63,1.28.69,3.89-2.21,3.83-2.07-.05-3.07-1.17-3.52-3.02-.17-.7-.64-1.44-.54-2.09.69-4.56,1.48-9.11,2.26-13.65.14-.84.94-1.39,1.55-1.35,3.26.19,6.23-1.79,9.52-1.16,2.6.5,5.01-.71,7.55-.83,1.1-.05.91-1.24.98-2.07,1.08-.13,2.15-.36,3.23-.36,33.54-.06,67.08-.1,100.62-.12.96,0,1.92.19,2.87.29Z"/>
  <path class="cls-2" d="m561.66,468.59c.02,3,2.51,2.8,4.21,2.76,4.39-.1,8.66,1.06,13.06.91,3.06-.1,5.55,2.36,8.79,2.62,1.89.15,1.88,6.57-.08,8.36-1.58,1.44-2.9,2.55-2.08,5.18.72,2.29-1.64,3-3.34,3.45-6.92,1.81-13.99,2.75-21.14,2.98-1.39.04-3.14-.45-3.09,1.92-19.17.04-38.35.15-57.52.1-9.33-.03-18.67.38-28-.28,2.26-4.22,6.58-3.41,9.8-2.94,4.6.67,8.61-2.07,13.09-1.16,1.21.25,1.34-1.24,1.22-2.19-.34-2.75-.52-5.56-1.29-8.19-.71-2.41-.97-4.42.97-6.31,1.3-1.27,1.04-1.78-.84-2.2-9.42-2.13-18.95-2.96-28.58-2.86-1.63.02-3.32.2-3.17-2.25,4.58-.81,9.19-.31,13.79-.31,23.57.01,47.13.12,70.7.21,1.33,0,2.66.13,3.99.2-.02,1.13.14,2.02,1.62,2.14,1.66.13,2.2-.97,2.76-2.14.24,0,.49,0,.74,0,0,1.12.11,2.18,1.64,2.06,1.33-.1,1.25-1.13,1.29-2.06.48,0,.97,0,1.45,0Z"/>
  <path class="cls-11" d="m1582.46,497.09c1.43-2.84,3.61-2.85,5.92-.01-1.97.59-3.95.6-5.92.01Z"/>
  <path class="cls-11" d="m1775.4,468.01c-2.17,2.07-4.36,1.93-6.58.07,2.19-.36,4.38-.35,6.58-.07Z"/>
  <path class="cls-2" d="m1.91,492.61c.33,1.35,2.45,1.4,2.26,3.12-.89.53-1.83.29-2.76.15-.31-.34-.62-.67-.94-1.01.48-.75.96-1.5,1.44-2.26Z"/>
  <path class="cls-8" d="m556.54,468.58c-.56,1.17-1.1,2.27-2.76,2.14-1.47-.11-1.63-1.01-1.62-2.14,1.46-.35,2.92-.35,4.38,0Z"/>
  <path class="cls-11" d="m1780.58,470.82c-.36-1.03-1.55-1.63-1.52-2.87,1.03-.07,2.05-.14,3.14-.22-.04,1.46-.69,2.35-1.62,3.08Z"/>
  <path class="cls-2" d="m212.4,467.98c-.02,1.01-.12,1.95-1.48,1.95-1.36,0-1.46-.94-1.48-1.95.99,0,1.97,0,2.96,0Z"/>
  <path class="cls-8" d="m560.21,468.59c-.04.93.04,1.96-1.29,2.06-1.53.11-1.64-.94-1.64-2.06.98-.32,1.95-.31,2.93,0Z"/>
  <path class="cls-14" d="m708.46,313.7c-1.23-1.56-1.88-3.32-1.78-5.32,1.96,1.31,1.8,3.34,1.78,5.32Z"/>
  <path class="cls-14" d="m1206.09,271.17c-1.25-.8-.52-1.95-.51-2.97,1.9.69,1.63,1.76.51,2.97Z"/>
  <path class="cls-12" d="m587.97,257.52c.09-1.12-.38-2.28.25-3.36.4.05.81.11,1.21.16.45,1.18-.38,2.07-.7,3.07-.25.04-.5.08-.75.12Z"/>
  <path class="cls-2" d="m20.89,495.8c.08-.58-.02-1.39.77-1.39.8,0,.69.82.77,1.39-.52.31-1.03.31-1.55,0Z"/>
  <path class="cls-7" d="m769.21,468.75c-.1.62.2,1.6-.74,1.6-.94,0-.64-.99-.74-1.61.5,0,.99,0,1.49,0Z"/>
  <path class="cls-2" d="m199.97,467.97c-.11.63.21,1.64-.75,1.64-.96,0-.64-1.01-.75-1.64.5,0,1,0,1.5,0Z"/>
  <path class="cls-2" d="m224.82,468c-.11.62.19,1.61-.75,1.61-.94,0-.64-.99-.75-1.61.5,0,1,0,1.5,0Z"/>
  <path class="cls-2" d="m234.32,468c-.11.62.19,1.61-.75,1.61-.94,0-.65-.99-.75-1.61.5,0,1,0,1.5,0Z"/>
  <path class="cls-4" d="m330.18,274.07c1.06.22,1.66.59.47,1.51-.82-.3-.59-.92-.47-1.51Z"/>
  <path class="cls-13" d="m1575.07,232.41c.26.45.39,1.14-.05,1.29-.93.31-1.14-.52-1.32-1.22.46-.02.91-.05,1.37-.07Z"/>
  <path class="cls-12" d="m1084.09,231.63c.15.71-.11,1.33-.84,1.23-.88-.12-.61-.8-.32-1.36.39.04.78.09,1.16.13Z"/>
  <path class="cls-5" d="m.48,494.86c.31.34.62.68.94,1.01-.42.04-1,.26-1.22.07-.38-.32-.15-.8.28-1.08Z"/>
  <path class="cls-14" d="m259.65,231.35c-.23.46-.43,1.3-1.02.95-.78-.47-.44-1.36-.17-2.1.4.38.79.77,1.19,1.15Z"/>
  <path class="cls-14" d="m1289.92,230.51c-.29.31-.57.63-.86.94-.56-.62-.29-1.32-.17-2,.34.35.68.71,1.03,1.06Z"/>
  <path class="cls-4" d="m1239.24,383c.18.19.35.38.53.56-.47.09-.68-.07-.53-.56Z"/>
  <path class="cls-4" d="m330.95,380.81c.18.25.36.49.54.74-.43-.06-.74-.21-.54-.74Z"/>
  <path class="cls-4" d="m1410.78,383.6c.2-.2.39-.4.59-.6.13.52-.08.71-.59.6Z"/>
  <path class="cls-14" d="m709.25,315.8c-.48-.06-.74-.28-.55-.8.18.27.37.53.55.8Z"/>
  <path class="cls-14" d="m68.44,306.97c-.19-.71.24-.69.73-.61-.24.2-.48.41-.73.61Z"/>
  <path class="cls-12" d="m1575.96,209.79c-.2.26-.41.52-.61.78-.26-.63,0-.84.61-.78Z"/>
  <path class="cls-13" d="m1574.25,357.18l-.12-.31s.21-.26.21-.26c.29.03.58.07.88.1-.05.23-.11.46-.16.69-.27-.07-.54-.15-.8-.22Z"/>
  <path class="cls-12" d="m1575.21,356.71c-.29-.03-.58-.07-.88-.1,0-.53.26-1.05.78-.93.66.15.51.64.09,1.03Z"/>
  <path class="cls-4" d="m587.97,257.52c.25-.04.5-.08.75-.12-.25.04-.5.08-.75.12Z"/>
  <rect class="cls-7" x="899.81" y="468.68" width="12.29" height="1.52"/>
</svg>