<svg version="1.1" id="Layer_1" xmlns="http://www.w3.org/2000/svg" xmlns:xlink="http://www.w3.org/1999/xlink" x="0px" y="0px"
	 width="100%" viewBox="0 0 3177 925" enable-background="new 0 0 3177 925" xml:space="preserve">
<path fill="#000000" opacity="1.000000" stroke="none" 
	d="
M2072.000000,926.000000 
	C1381.333374,926.000000 691.166687,926.000000 1.000000,926.000000 
	C1.000000,617.666687 1.000000,309.333344 1.000000,1.000000 
	C1060.000000,1.000000 2119.000000,1.000000 3178.000000,1.000000 
	C3178.000000,309.333344 3178.000000,617.666687 3178.000000,926.000000 
	C2809.500000,926.000000 2441.000000,926.000000 2072.000000,926.000000 
M2027.279175,288.178833 
	C2025.814575,291.105164 2024.349976,294.031494 2022.236572,297.243866 
	C2005.956055,327.241333 1989.675415,357.238770 1973.243530,387.514984 
	C1972.286621,386.645142 1971.651733,386.301422 1971.359985,385.769501 
	C1956.218262,358.153015 1941.071411,330.539185 1926.003174,302.882629 
	C1916.929199,286.228302 1908.030396,269.478271 1898.900513,252.854996 
	C1898.027100,251.264832 1896.089600,249.199890 1894.607666,249.168472 
	C1881.147705,248.883179 1867.679443,249.001175 1853.599243,249.001175 
	C1854.324097,250.983170 1854.661255,252.563599 1855.427490,253.897690 
	C1862.708740,266.576599 1870.149170,279.164673 1877.375488,291.874512 
	C1887.698730,310.031342 1897.809814,328.308807 1908.140747,346.461182 
	C1921.097900,369.227997 1933.990479,392.036041 1947.347046,414.567902 
	C1950.949829,420.645721 1952.150269,426.636993 1952.103394,433.534454 
	C1951.874878,467.189667 1952.081055,500.847748 1951.902588,534.503601 
	C1951.879028,538.951172 1953.182373,540.227844 1957.556641,540.095398 
	C1967.544556,539.793152 1977.555420,539.772461 1987.541504,540.102600 
	C1992.066162,540.252136 1993.107544,538.703064 1993.088745,534.405090 
	C1992.931641,498.582947 1992.993896,462.759796 1993.018555,426.936981 
	C1993.019653,425.318024 1992.796021,423.417542 1993.523071,422.123260 
	C2002.727905,405.733887 2012.075317,389.424408 2021.412476,373.109558 
	C2030.592041,357.069580 2039.796143,341.043610 2048.999756,325.017395 
	C2056.442139,312.057892 2063.979492,299.151978 2071.323730,286.137146 
	C2076.364014,277.205109 2081.145264,268.127106 2086.663574,258.869598 
	C2087.147461,257.927063 2087.631104,256.984558 2088.697754,255.828781 
	C2088.836426,255.233505 2088.975098,254.638229 2089.758301,253.762772 
	C2090.395752,252.535263 2091.033203,251.307755 2091.973145,249.497910 
	C2077.153320,249.497910 2062.786377,249.497910 2048.218262,249.497910 
	C2047.224731,251.423752 2046.055176,253.690842 2044.252686,256.225037 
	C2043.797241,257.469025 2043.341797,258.713043 2042.234619,260.245880 
	C2039.457520,265.811188 2036.680420,271.376465 2033.984009,276.986359 
	C2033.984009,276.986359 2033.939575,276.905609 2033.277588,277.180328 
	C2031.486084,280.767487 2029.694702,284.354645 2027.984009,287.986359 
	C2027.984009,287.986359 2027.939575,287.905609 2027.279175,288.178833 
M2181.968994,416.008179 
	C2186.632080,416.005432 2191.294922,416.000458 2195.958008,416.000336 
	C2226.933594,415.999634 2257.909424,416.008301 2288.885010,415.987732 
	C2292.190918,415.985535 2295.917969,416.315552 2294.988037,410.073761 
	C2295.175781,397.771454 2295.431885,385.469574 2295.508301,373.166565 
	C2295.530518,369.587311 2293.886963,367.341370 2289.793701,367.396515 
	C2281.333740,367.510529 2272.870850,367.413727 2264.409180,367.407776 
	C2241.250000,367.391510 2218.091064,367.376984 2194.931885,367.362915 
	C2190.360840,367.360168 2185.789795,367.362518 2181.260742,367.362518 
	C2181.260742,344.430359 2181.260742,322.350403 2181.260742,299.885803 
	C2224.250000,299.885803 2266.980469,299.885803 2309.999512,299.885803 
	C2309.999512,283.870728 2309.931885,268.240479 2310.047119,252.611572 
	C2310.076172,248.680496 2307.650391,248.988937 2305.061035,248.989548 
	C2244.747070,249.003784 2184.432861,249.031860 2124.119141,248.927032 
	C2120.277832,248.920364 2118.912354,249.837265 2118.916992,253.931686 
	C2119.024902,347.568329 2119.031006,441.205170 2118.903564,534.841797 
	C2118.897461,539.234924 2120.399902,540.121521 2124.392334,540.077820 
	C2141.218262,539.893677 2158.050049,539.845215 2174.874023,540.100281 
	C2179.540527,540.171021 2181.142822,539.080200 2181.117432,534.075500 
	C2180.919434,494.756104 2181.028076,455.435120 2181.968994,416.008179 
M2730.996338,251.138260 
	C2729.389160,250.425552 2727.786621,249.104309 2726.174316,249.092743 
	C2706.365967,248.950668 2686.556152,248.975327 2666.747070,249.041656 
	C2664.918945,249.047791 2663.093018,249.634430 2660.994873,249.998566 
	C2661.862305,251.917587 2662.517334,253.366638 2663.126953,255.545853 
	C2673.902588,272.351410 2684.643311,289.179474 2695.461670,305.957428 
	C2712.476318,332.344299 2729.585693,358.670532 2746.471191,385.139740 
	C2747.363037,386.537811 2747.305664,389.500397 2746.410156,390.936005 
	C2733.293701,411.961182 2720.037842,432.900757 2706.656982,453.759399 
	C2689.703125,480.188354 2672.600098,506.521545 2655.580078,532.908081 
	C2654.223145,535.011658 2653.012939,537.209961 2651.358154,539.999084 
	C2674.058105,539.999084 2695.850342,540.060303 2717.640137,539.862427 
	C2719.107422,539.849060 2721.032959,538.183655 2721.935547,536.769653 
	C2726.957031,528.904602 2731.705322,520.866028 2736.589355,512.912415 
	C2749.045410,492.626678 2761.506348,472.343719 2774.007568,452.085602 
	C2776.820801,447.527039 2779.806152,443.074554 2782.875977,438.319580 
	C2785.750732,443.088989 2788.230225,447.030396 2790.541504,451.068268 
	C2799.802002,467.247101 2808.953369,483.488434 2818.256836,499.642395 
	C2825.319336,511.905121 2832.685547,523.994995 2839.606934,536.335449 
	C2841.262939,539.287720 2843.145996,540.062073 2846.239990,540.048584 
	C2867.571045,539.955322 2888.902832,540.003174 2910.234375,539.989868 
	C2911.458496,539.989075 2912.682373,539.849731 2914.234131,539.754761 
	C2913.635498,538.367615 2913.376465,537.431396 2912.874268,536.651794 
	C2895.173828,509.169708 2877.461182,481.695343 2859.725830,454.235626 
	C2846.271973,433.404816 2832.758545,412.612305 2819.349365,391.752655 
	C2817.925781,389.538269 2817.627441,387.534607 2819.526123,384.689209 
	C2828.455078,371.309357 2836.772705,357.524048 2845.512695,344.015564 
	C2864.059570,315.349487 2882.749023,286.775574 2901.330566,258.131989 
	C2903.123291,255.368637 2904.570801,252.381531 2906.456299,249.000610 
	C2884.381836,249.000610 2863.068115,248.941498 2841.756348,249.120636 
	C2840.172363,249.133957 2837.949951,250.466232 2837.123779,251.844437 
	C2822.986572,275.424469 2809.034424,299.115601 2795.013184,322.765228 
	C2791.134521,329.306976 2787.163818,335.793854 2782.769043,343.079010 
	C2770.880615,322.111053 2759.497314,302.034302 2747.833008,281.290863 
	C2742.591797,272.178223 2737.350586,263.065582 2732.006104,253.341782 
	C2731.708984,252.880447 2731.411621,252.419128 2730.996338,251.138260 
M380.500000,655.000000 
	C341.336792,655.000061 302.173553,654.990417 263.010376,655.031799 
	C261.250092,655.033691 259.461975,655.373596 257.734833,655.767029 
	C246.507965,658.324219 236.382828,671.269836 236.619354,684.796021 
	C236.846237,697.771790 251.197983,712.203918 264.089386,712.188660 
	C485.905090,711.926147 707.721191,712.000061 929.537231,712.000000 
	C1323.339844,712.000000 1717.142456,712.004639 2110.945068,711.922668 
	C2114.431885,711.921936 2118.170166,711.361023 2121.361328,710.030823 
	C2134.744629,704.452209 2141.216064,691.725647 2138.769287,678.247192 
	C2136.416504,665.284790 2125.151123,654.888611 2110.364990,654.891907 
	C1534.076660,655.019470 957.788330,655.000061 380.500000,655.000000 
M2294.500000,146.000000 
	C2494.320801,145.999939 2694.141846,146.029694 2893.962402,145.831161 
	C2899.051025,145.826096 2904.542480,144.119781 2909.143066,141.808060 
	C2920.023193,136.340988 2925.318115,122.632530 2922.632324,111.635887 
	C2919.324707,98.093567 2908.757568,89.061218 2895.501221,89.052742 
	C2761.009277,88.966705 2626.517090,89.000008 2492.025146,89.000008 
	C2011.053589,89.000031 1530.081909,88.996231 1049.110352,89.076134 
	C1045.618530,89.076714 1041.892578,89.643021 1038.675781,90.938293 
	C1024.322876,96.717430 1019.040344,110.362259 1021.227844,123.198166 
	C1023.592590,137.074234 1037.024780,146.108231 1049.573486,146.104401 
	C1464.215698,145.978088 1878.857788,145.999969 2294.500000,146.000000 
M1535.000000,272.500061 
	C1535.000000,340.307159 1535.000000,408.114258 1535.000000,475.921356 
	C1524.516846,462.631470 1515.285889,449.108124 1505.956543,435.652893 
	C1495.835571,421.056091 1485.541138,406.579285 1475.468018,391.949921 
	C1455.252441,362.590820 1435.145020,333.157349 1414.975220,303.766724 
	C1403.016357,286.340485 1391.073730,268.902313 1378.948853,251.591995 
	C1377.997803,250.234314 1375.688599,249.163757 1373.977417,249.114716 
	C1365.319824,248.866547 1356.651367,249.000519 1347.986694,249.000504 
	C1337.000366,249.000504 1337.000244,249.000504 1337.000244,260.061737 
	C1337.000244,351.374176 1337.038452,442.686707 1336.894409,533.998901 
	C1336.886841,538.867859 1338.242310,540.316833 1343.053711,540.104614 
	C1351.535278,539.730713 1360.045166,540.000671 1368.543213,539.999756 
	C1374.998169,539.999084 1374.999390,539.998169 1374.999390,533.406921 
	C1374.999756,461.756653 1374.999634,390.106354 1374.999756,318.456085 
	C1374.999756,316.634430 1374.999756,314.812805 1374.999756,312.249847 
	C1376.441772,313.236359 1376.958740,313.421143 1377.212402,313.788055 
	C1385.830322,326.255493 1394.398560,338.757385 1403.026123,351.218201 
	C1413.869385,366.879272 1424.820068,382.466248 1435.614746,398.160767 
	C1456.454956,428.461029 1477.224121,458.810089 1498.010742,489.147278 
	C1509.041260,505.245850 1520.023071,521.377869 1531.112793,537.435608 
	C1531.876831,538.541931 1533.349976,539.867249 1534.509766,539.883118 
	C1547.268799,540.057922 1560.031006,539.992798 1572.728882,539.992798 
	C1572.728882,442.698151 1572.728882,345.975403 1572.728882,249.001160 
	C1561.155396,249.001160 1549.850586,249.058334 1538.546997,248.962845 
	C1535.541626,248.937439 1534.924316,250.407257 1534.967285,253.004959 
	C1535.069336,259.168518 1535.000122,265.334930 1535.000000,272.500061 
M667.484192,278.991150 
	C665.243042,277.082489 662.996399,275.180206 660.761658,273.264038 
	C651.365173,265.206940 640.657593,259.386536 629.156799,255.006989 
	C609.352783,247.465607 588.790283,245.401505 567.702454,245.833054 
	C555.515991,246.082458 543.579285,247.330231 531.765503,250.026749 
	C509.155060,255.187607 489.434845,265.945435 473.272308,282.465515 
	C462.618408,293.355103 454.321899,306.071411 448.210693,320.236847 
	C439.096710,341.362549 435.040314,363.500031 434.109558,386.273132 
	C433.766632,394.663147 434.686279,403.103180 434.995728,411.521698 
	C435.643494,429.144623 439.516998,446.020081 445.742584,462.527557 
	C450.987335,476.434204 458.085388,489.169617 467.871521,500.217529 
	C479.527344,513.376221 493.090637,524.036621 509.438904,531.253174 
	C524.896240,538.076416 541.026123,541.711731 557.628052,542.791504 
	C569.140686,543.540222 580.788086,542.496887 592.361389,541.955750 
	C604.546387,541.385864 616.163208,538.313599 627.664124,534.174744 
	C657.784180,523.335327 679.128052,502.833282 693.494568,474.843628 
	C703.479919,455.389557 708.533264,434.221649 709.743286,412.565063 
	C710.888916,392.062897 710.727844,371.442871 706.080933,351.106964 
	C699.824280,323.726898 688.645142,299.130371 667.484192,278.991150 
M1110.000000,479.500000 
	C1110.000000,458.737732 1110.000000,437.975433 1110.000000,416.999725 
	C1123.050903,416.999725 1135.530029,416.870270 1148.005127,417.035065 
	C1161.251221,417.210052 1174.527588,417.186188 1187.729004,418.120270 
	C1203.395630,419.228790 1213.761108,428.833160 1219.536255,442.500031 
	C1224.437744,454.099579 1227.653442,466.471466 1230.922729,478.686920 
	C1235.952515,497.480286 1240.423462,516.424011 1245.047852,535.324341 
	C1245.923218,538.901550 1247.708618,540.222473 1251.560913,540.103516 
	C1261.550781,539.795166 1271.556641,540.006897 1281.556030,539.997253 
	C1287.133789,539.991943 1287.162842,539.854126 1285.699707,534.266418 
	C1281.426270,517.947266 1277.370605,501.569580 1272.945557,485.291992 
	C1267.733521,466.119141 1263.756592,446.512146 1253.989624,428.860504 
	C1249.742676,421.185059 1244.587891,414.131042 1236.980225,409.641144 
	C1229.891235,405.457367 1222.258667,402.194733 1215.925903,399.052826 
	C1236.744629,393.653503 1254.703491,381.747406 1264.728149,360.395874 
	C1272.456055,343.935669 1273.500244,326.489349 1270.125488,308.503174 
	C1265.799438,285.447357 1252.403320,269.688843 1232.015503,259.670013 
	C1215.900391,251.750748 1198.203613,249.400513 1180.509521,249.148590 
	C1145.351929,248.648010 1110.182373,248.998047 1075.017700,249.010452 
	C1073.746704,249.010910 1072.475586,249.157745 1071.282471,249.231537 
	C1071.282471,346.301819 1071.282471,443.036316 1071.282471,539.714233 
	C1084.305298,539.714233 1097.044189,539.714233 1110.000000,539.714233 
	C1110.000000,519.786255 1110.000000,500.143127 1110.000000,479.500000 
M792.005737,508.510437 
	C796.395447,512.890869 800.334412,517.875977 805.255005,521.544312 
	C823.952637,535.483398 845.574829,541.609680 868.504395,542.830017 
	C880.369629,543.461548 892.334656,542.477722 904.243530,541.965942 
	C920.630066,541.261719 936.012573,536.708069 950.386719,528.901855 
	C965.782349,520.540771 977.793701,508.590637 985.920898,493.098206 
	C995.652832,474.546631 999.733398,454.358093 999.865967,433.655823 
	C1000.245911,374.329651 999.999512,314.999451 999.999390,255.670837 
	C999.999390,254.504257 1000.361755,253.163956 999.907593,252.214401 
	C999.317749,250.981186 998.093567,249.156250 997.115967,249.139603 
	C984.845093,248.930664 972.569397,249.002563 960.000366,249.002563 
	C960.000366,250.291580 960.004089,251.091873 959.999695,251.892151 
	C959.666931,312.639832 959.447388,373.388580 958.873047,434.134003 
	C958.790405,442.877411 957.580750,451.720367 955.871094,460.314056 
	C952.818176,475.660126 945.017944,488.332947 932.043579,497.427002 
	C919.566833,506.172272 905.080933,509.210541 890.376221,509.728790 
	C879.522766,510.111298 868.441406,508.768158 857.712524,506.815125 
	C842.337585,504.016388 829.555298,496.045746 820.646301,483.018341 
	C811.611328,469.807068 808.406067,454.404968 808.195557,438.868713 
	C807.624390,396.713165 807.999634,354.544739 807.999634,312.381439 
	C807.999634,293.049652 807.904114,273.716980 808.077820,254.386749 
	C808.113831,250.383163 807.240662,248.553970 802.826660,248.915573 
	C798.191467,249.295288 793.501038,249.000519 788.834717,249.000519 
	C781.915955,249.000519 774.997192,249.000519 768.000000,249.000519 
	C768.000000,307.517517 768.033752,365.340515 767.975708,423.163391 
	C767.961670,437.153656 767.648682,451.141663 770.999084,464.879913 
	C774.850342,480.671478 780.631226,495.541473 792.005737,508.510437 
M1687.000000,450.500000 
	C1687.000000,436.071014 1687.000000,421.641998 1687.000000,407.000000 
	C1689.215942,407.000000 1690.860352,407.000000 1692.504883,407.000000 
	C1725.167236,407.000000 1757.829590,407.000000 1790.491943,407.000000 
	C1799.490723,407.000000 1808.492676,407.117249 1817.485474,406.885986 
	C1819.005859,406.846893 1821.764526,405.345551 1821.791870,404.453735 
	C1822.100220,394.369415 1821.987061,384.272247 1821.987061,373.794739 
	C1776.660156,373.794739 1731.924561,373.794739 1687.300537,373.794739 
	C1687.300537,343.328674 1687.300537,313.259064 1687.300537,282.797119 
	C1736.001953,282.797119 1784.403809,282.797119 1832.697266,282.797119 
	C1832.697266,271.327423 1832.697266,260.255249 1832.697266,249.299301 
	C1770.994995,249.299301 1709.595581,249.299301 1648.290283,249.299301 
	C1648.290283,346.327789 1648.290283,443.057220 1648.290283,539.713928 
	C1709.979980,539.713928 1771.379517,539.713928 1832.710083,539.713928 
	C1832.710083,528.353699 1832.710083,517.281738 1832.710083,505.820984 
	C1784.019775,505.820984 1735.617920,505.820984 1687.000000,505.820984 
	C1687.000000,487.451172 1687.000000,469.475586 1687.000000,450.500000 
M2374.500000,540.000000 
	C2426.259033,540.000000 2478.018066,540.000000 2529.711670,540.000000 
	C2529.711670,521.358276 2529.711670,503.287048 2529.711670,484.821472 
	C2489.020752,484.821472 2448.616455,484.821472 2407.821533,484.821472 
	C2407.821533,406.023102 2407.821533,327.622101 2407.821533,249.290024 
	C2387.354736,249.290024 2367.283691,249.290024 2347.285645,249.290024 
	C2347.285645,346.312225 2347.285645,443.044678 2347.285645,540.000000 
	C2356.212646,540.000000 2364.856445,540.000000 2374.500000,540.000000 
M2563.000000,380.500000 
	C2563.000000,431.817902 2563.051025,483.135986 2562.908203,534.453491 
	C2562.895996,538.823059 2564.061035,540.164124 2568.504150,540.100220 
	C2585.662109,539.853394 2602.826904,539.885071 2619.986328,540.085571 
	C2623.980225,540.132263 2625.082031,538.915100 2625.077881,534.962708 
	C2624.977539,441.324280 2624.977295,347.685669 2625.076660,254.047256 
	C2625.081055,250.107880 2624.002686,248.867142 2619.995605,248.914352 
	C2602.836426,249.116577 2585.671631,249.145676 2568.513428,248.901062 
	C2564.084229,248.837921 2562.890137,250.153687 2562.906738,254.537888 
	C2563.063232,296.191437 2563.000000,337.845856 2563.000000,380.500000 
M369.965973,501.358551 
	C375.626343,487.492493 377.759521,472.802032 377.838898,458.097961 
	C378.203918,390.478394 377.999603,322.855774 377.999481,255.234268 
	C377.999481,254.234940 378.371277,252.995804 377.916443,252.288849 
	C377.102661,251.024048 375.808289,249.164520 374.683960,249.142715 
	C362.912750,248.914276 351.135406,249.001678 339.000488,249.001678 
	C339.000488,251.216797 339.000488,253.008591 339.000488,254.800369 
	C339.000458,320.256653 339.115845,385.713379 338.867035,451.168732 
	C338.832581,460.236359 337.671570,469.436554 335.830475,478.326508 
	C333.417206,489.979584 326.967834,499.585052 315.385376,503.592041 
	C307.709290,506.247589 299.280823,506.982513 291.112457,507.875549 
	C285.241119,508.517426 279.243042,508.000488 273.000549,508.000488 
	C273.000549,518.104675 273.162476,527.734863 272.921600,537.354980 
	C272.824097,541.249878 274.329681,542.251404 277.907166,542.046753 
	C286.311768,541.565918 294.786438,541.823303 303.129150,540.872681 
	C313.059509,539.741211 323.170746,538.625610 332.687592,535.778381 
	C350.126282,530.560974 362.773865,519.307800 369.965973,501.358551 
M2276.460938,655.000000 
	C2243.322266,655.000122 2210.183350,654.989136 2177.044678,655.030945 
	C2175.282471,655.033203 2173.490967,655.350647 2171.763428,655.741821 
	C2160.291260,658.339172 2150.820557,671.780945 2150.585693,683.713440 
	C2150.311523,697.618408 2165.221680,712.676697 2179.493896,712.288635 
	C2212.774414,711.383911 2246.096924,712.070435 2279.401367,711.910583 
	C2283.553955,711.890686 2288.007324,711.397583 2291.794189,709.841187 
	C2304.611328,704.573181 2311.725830,690.600769 2308.381348,676.933960 
	C2305.120361,663.607117 2293.623291,653.541199 2276.460938,655.000000 
M840.379883,129.883270 
	C846.138367,140.295700 854.648438,146.052353 866.858826,146.025681 
	C900.853760,145.951416 934.848938,146.009369 968.844055,145.972122 
	C970.618774,145.970184 972.450012,145.781082 974.158447,145.320831 
	C985.114990,142.369125 991.799316,135.281906 995.065674,124.410378 
	C999.969666,108.088493 986.160095,89.012573 969.096802,89.004990 
	C934.268494,88.989510 899.440186,88.996201 864.611877,89.014748 
	C863.130127,89.015541 861.603088,89.033318 860.173767,89.369247 
	C842.230286,93.586517 833.445190,112.086098 840.379883,129.883270 
M2343.610596,707.076111 
	C2349.200928,710.845398 2355.268311,712.200439 2362.084961,712.117737 
	C2379.003662,711.912415 2393.223145,694.890259 2388.376221,675.907043 
	C2385.492188,664.611084 2373.717041,653.873291 2358.021240,654.724304 
	C2345.827637,655.385437 2332.133789,668.751526 2331.806885,680.663208 
	C2331.511719,691.418457 2334.931152,699.845459 2343.610596,707.076111 
M779.780762,93.033958 
	C778.794250,93.914391 777.823730,94.813461 776.818848,95.672371 
	C766.027100,104.896408 765.192017,118.376396 768.705200,128.214050 
	C772.081665,137.669098 783.735718,146.862427 797.510010,146.134689 
	C816.759216,145.117706 829.866394,124.572540 821.859558,105.787720 
	C815.190369,90.141197 795.330261,83.911095 779.780762,93.033958 
z"/>
<path fill="#37B7FF" opacity="1.000000" stroke="none" 
	d="
M381.000000,655.000000 
	C957.788330,655.000061 1534.076660,655.019470 2110.364990,654.891907 
	C2125.151123,654.888611 2136.416504,665.284790 2138.769287,678.247192 
	C2141.216064,691.725647 2134.744629,704.452209 2121.361328,710.030823 
	C2118.170166,711.361023 2114.431885,711.921936 2110.945068,711.922668 
	C1717.142456,712.004639 1323.339844,712.000000 929.537231,712.000000 
	C707.721191,712.000061 485.905090,711.926147 264.089386,712.188660 
	C251.197983,712.203918 236.846237,697.771790 236.619354,684.796021 
	C236.382828,671.269836 246.507965,658.324219 257.734833,655.767029 
	C259.461975,655.373596 261.250092,655.033691 263.010376,655.031799 
	C302.173553,654.990417 341.336792,655.000061 381.000000,655.000000 
z"/>
<path fill="#37B7FF" opacity="1.000000" stroke="none" 
	d="
M2294.000000,146.000000 
	C1878.857788,145.999969 1464.215698,145.978088 1049.573486,146.104401 
	C1037.024780,146.108231 1023.592590,137.074234 1021.227844,123.198166 
	C1019.040344,110.362259 1024.322876,96.717430 1038.675781,90.938293 
	C1041.892578,89.643021 1045.618530,89.076714 1049.110352,89.076134 
	C1530.081909,88.996231 2011.053589,89.000031 2492.025146,89.000008 
	C2626.517090,89.000008 2761.009277,88.966705 2895.501221,89.052742 
	C2908.757568,89.061218 2919.324707,98.093567 2922.632324,111.635887 
	C2925.318115,122.632530 2920.023193,136.340988 2909.143066,141.808060 
	C2904.542480,144.119781 2899.051025,145.826096 2893.962402,145.831161 
	C2694.141846,146.029694 2494.320801,145.999939 2294.000000,146.000000 
z"/>
<path fill="#FFFFFF" opacity="1.000000" stroke="none" 
	d="
M2748.114258,281.957520 
	C2759.497314,302.034302 2770.880615,322.111053 2782.769043,343.079010 
	C2787.163818,335.793854 2791.134521,329.306976 2795.013184,322.765228 
	C2809.034424,299.115601 2822.986572,275.424469 2837.123779,251.844437 
	C2837.949951,250.466232 2840.172363,249.133957 2841.756348,249.120636 
	C2863.068115,248.941498 2884.381836,249.000610 2906.456299,249.000610 
	C2904.570801,252.381531 2903.123291,255.368637 2901.330566,258.131989 
	C2882.749023,286.775574 2864.059570,315.349487 2845.512695,344.015564 
	C2836.772705,357.524048 2828.455078,371.309357 2819.526123,384.689209 
	C2817.627441,387.534607 2817.925781,389.538269 2819.349365,391.752655 
	C2832.758545,412.612305 2846.271973,433.404816 2859.725830,454.235626 
	C2877.461182,481.695343 2895.173828,509.169708 2912.874268,536.651794 
	C2913.376465,537.431396 2913.635498,538.367615 2914.234131,539.754761 
	C2912.682373,539.849731 2911.458496,539.989075 2910.234375,539.989868 
	C2888.902832,540.003174 2867.571045,539.955322 2846.239990,540.048584 
	C2843.145996,540.062073 2841.262939,539.287720 2839.606934,536.335449 
	C2832.685547,523.994995 2825.319336,511.905121 2818.256836,499.642395 
	C2808.953369,483.488434 2799.802002,467.247101 2790.541504,451.068268 
	C2788.230225,447.030396 2785.750732,443.088989 2782.875977,438.319580 
	C2779.806152,443.074554 2776.820801,447.527039 2774.007568,452.085602 
	C2761.506348,472.343719 2749.045410,492.626678 2736.589355,512.912415 
	C2731.705322,520.866028 2726.957031,528.904602 2721.935547,536.769653 
	C2721.032959,538.183655 2719.107422,539.849060 2717.640137,539.862427 
	C2695.850342,540.060303 2674.058105,539.999084 2651.358154,539.999084 
	C2653.012939,537.209961 2654.223145,535.011658 2655.580078,532.908081 
	C2672.600098,506.521545 2689.703125,480.188354 2706.656982,453.759399 
	C2720.037842,432.900757 2733.293701,411.961182 2746.410156,390.936005 
	C2747.305664,389.500397 2747.363037,386.537811 2746.471191,385.139740 
	C2729.585693,358.670532 2712.476318,332.344299 2695.461670,305.957428 
	C2684.643311,289.179474 2673.902588,272.351410 2663.413086,254.768127 
	C2665.566895,253.326965 2667.430908,252.100296 2669.303711,252.086517 
	C2689.906250,251.934769 2710.510742,251.971848 2731.114258,251.957748 
	C2731.411621,252.419128 2731.708984,252.880447 2731.770996,253.867340 
	C2731.428711,255.336609 2730.899902,256.519653 2731.278564,257.187561 
	C2735.790527,265.136932 2740.391602,273.037659 2745.128418,280.854706 
	C2745.558594,281.564667 2747.092773,281.605835 2748.114258,281.957520 
z"/>
<path fill="#FFFFFF" opacity="1.000000" stroke="none" 
	d="
M1535.000000,272.000122 
	C1535.000122,265.334930 1535.069336,259.168518 1534.967285,253.004959 
	C1534.924316,250.407257 1535.541626,248.937439 1538.546997,248.962845 
	C1549.850586,249.058334 1561.155396,249.001160 1572.728882,249.001160 
	C1572.728882,345.975403 1572.728882,442.698151 1572.728882,539.992798 
	C1560.031006,539.992798 1547.268799,540.057922 1534.509766,539.883118 
	C1533.349976,539.867249 1531.876831,538.541931 1531.112793,537.435608 
	C1520.023071,521.377869 1509.041260,505.245850 1498.010742,489.147278 
	C1477.224121,458.810089 1456.454956,428.461029 1435.614746,398.160767 
	C1424.820068,382.466248 1413.869385,366.879272 1403.026123,351.218201 
	C1394.398560,338.757385 1385.830322,326.255493 1377.212402,313.788055 
	C1376.958740,313.421143 1376.441772,313.236359 1374.999756,312.249847 
	C1374.999756,314.812805 1374.999756,316.634430 1374.999756,318.456085 
	C1374.999634,390.106354 1374.999756,461.756653 1374.999390,533.406921 
	C1374.999390,539.998169 1374.998169,539.999084 1368.543213,539.999756 
	C1360.045166,540.000671 1351.535278,539.730713 1343.053711,540.104614 
	C1338.242310,540.316833 1336.886841,538.867859 1336.894409,533.998901 
	C1337.038452,442.686707 1337.000244,351.374176 1337.000244,260.061737 
	C1337.000244,249.000504 1337.000366,249.000504 1347.986694,249.000504 
	C1356.651367,249.000519 1365.319824,248.866547 1373.977417,249.114716 
	C1375.688599,249.163757 1377.997803,250.234314 1378.948853,251.591995 
	C1391.073730,268.902313 1403.016357,286.340485 1414.975220,303.766724 
	C1435.145020,333.157349 1455.252441,362.590820 1475.468018,391.949921 
	C1485.541138,406.579285 1495.835571,421.056091 1505.956543,435.652893 
	C1515.285889,449.108124 1524.516846,462.631470 1535.000000,475.921356 
	C1535.000000,408.114258 1535.000000,340.307159 1535.000000,272.000122 
z"/>
<path fill="#FFFFFF" opacity="1.000000" stroke="none" 
	d="
M667.737671,279.239197 
	C688.645142,299.130371 699.824280,323.726898 706.080933,351.106964 
	C710.727844,371.442871 710.888916,392.062897 709.743286,412.565063 
	C708.533264,434.221649 703.479919,455.389557 693.494568,474.843628 
	C679.128052,502.833282 657.784180,523.335327 627.664124,534.174744 
	C616.163208,538.313599 604.546387,541.385864 592.361389,541.955750 
	C580.788086,542.496887 569.140686,543.540222 557.628052,542.791504 
	C541.026123,541.711731 524.896240,538.076416 509.438904,531.253174 
	C493.090637,524.036621 479.527344,513.376221 467.871521,500.217529 
	C458.085388,489.169617 450.987335,476.434204 445.742584,462.527557 
	C439.516998,446.020081 435.643494,429.144623 434.995728,411.521698 
	C434.686279,403.103180 433.766632,394.663147 434.109558,386.273132 
	C435.040314,363.500031 439.096710,341.362549 448.210693,320.236847 
	C454.321899,306.071411 462.618408,293.355103 473.272308,282.465515 
	C489.434845,265.945435 509.155060,255.187607 531.765503,250.026749 
	C543.579285,247.330231 555.515991,246.082458 567.702454,245.833054 
	C588.790283,245.401505 609.352783,247.465607 629.156799,255.006989 
	C640.657593,259.386536 651.365173,265.206940 660.761658,273.264038 
	C662.996399,275.180206 665.243042,277.082489 667.737671,279.239197 
M506.003693,302.494507 
	C495.540161,312.636627 488.676208,325.065796 484.074432,338.661224 
	C476.416199,361.286621 473.881622,384.480499 475.764954,408.440125 
	C477.060699,424.923889 480.117584,440.823700 486.139008,456.055969 
	C492.279663,471.589874 501.917816,484.884796 515.540955,494.810822 
	C530.960327,506.045654 548.896667,510.024048 567.495178,510.825409 
	C575.945251,511.189484 584.503906,509.910370 592.965759,508.955353 
	C614.730286,506.499023 631.994324,495.544739 645.406067,478.891602 
	C660.794128,459.784515 666.379761,436.701630 668.837769,412.893707 
	C669.825378,403.328217 669.519470,393.539978 668.859558,383.917755 
	C668.149353,373.562408 667.089905,363.114777 664.842468,353.005371 
	C660.213440,332.183929 651.130127,313.797516 634.832336,299.075684 
	C619.009033,284.782440 600.144653,279.428223 579.810242,278.209625 
	C570.390869,277.645111 560.807800,279.057434 551.349792,280.055695 
	C533.796204,281.908508 519.193848,290.054199 506.003693,302.494507 
z"/>
<path fill="#FFFFFF" opacity="1.000000" stroke="none" 
	d="
M2181.041992,416.114655 
	C2181.028076,455.435120 2180.919434,494.756104 2181.117432,534.075500 
	C2181.142822,539.080200 2179.540527,540.171021 2174.874023,540.100281 
	C2158.050049,539.845215 2141.218262,539.893677 2124.392334,540.077820 
	C2120.399902,540.121521 2118.897461,539.234924 2118.903564,534.841797 
	C2119.031006,441.205170 2119.024902,347.568329 2118.916992,253.931686 
	C2118.912354,249.837265 2120.277832,248.920364 2124.119141,248.927032 
	C2184.432861,249.031860 2244.747070,249.003784 2305.061035,248.989548 
	C2307.650391,248.988937 2310.076172,248.680496 2310.047119,252.611572 
	C2309.931885,268.240479 2309.999512,283.870728 2309.999512,299.885803 
	C2266.980469,299.885803 2224.250000,299.885803 2181.260742,299.885803 
	C2181.260742,322.350403 2181.260742,344.430359 2181.260742,367.362518 
	C2185.789795,367.362518 2190.360840,367.360168 2194.931885,367.362915 
	C2218.091064,367.376984 2241.250000,367.391510 2264.409180,367.407776 
	C2272.870850,367.413727 2281.333740,367.510529 2289.793701,367.396515 
	C2293.886963,367.341370 2295.530518,369.587311 2295.508301,373.166565 
	C2295.431885,385.469574 2295.175781,397.771454 2294.561768,410.608826 
	C2291.442139,412.095978 2288.753662,413.861053 2286.054932,413.876434 
	C2252.795898,414.066010 2219.535156,413.968079 2186.275146,414.090118 
	C2184.528564,414.096558 2182.786377,415.409790 2181.041992,416.114655 
z"/>
<path fill="#FFFFFF" opacity="1.000000" stroke="none" 
	d="
M1110.000000,480.000000 
	C1110.000000,500.143127 1110.000000,519.786255 1110.000000,539.714233 
	C1097.044189,539.714233 1084.305298,539.714233 1071.282471,539.714233 
	C1071.282471,443.036316 1071.282471,346.301819 1071.282471,249.231537 
	C1072.475586,249.157745 1073.746704,249.010910 1075.017700,249.010452 
	C1110.182373,248.998047 1145.351929,248.648010 1180.509521,249.148590 
	C1198.203613,249.400513 1215.900391,251.750748 1232.015503,259.670013 
	C1252.403320,269.688843 1265.799438,285.447357 1270.125488,308.503174 
	C1273.500244,326.489349 1272.456055,343.935669 1264.728149,360.395874 
	C1254.703491,381.747406 1236.744629,393.653503 1215.925903,399.052826 
	C1222.258667,402.194733 1229.891235,405.457367 1236.980225,409.641144 
	C1244.587891,414.131042 1249.742676,421.185059 1253.989624,428.860504 
	C1263.756592,446.512146 1267.733521,466.119141 1272.945557,485.291992 
	C1277.370605,501.569580 1281.426270,517.947266 1285.699707,534.266418 
	C1287.162842,539.854126 1287.133789,539.991943 1281.556030,539.997253 
	C1271.556641,540.006897 1261.550781,539.795166 1251.560913,540.103516 
	C1247.708618,540.222473 1245.923218,538.901550 1245.047852,535.324341 
	C1240.423462,516.424011 1235.952515,497.480286 1230.922729,478.686920 
	C1227.653442,466.471466 1224.437744,454.099579 1219.536255,442.500031 
	C1213.761108,428.833160 1203.395630,419.228790 1187.729004,418.120270 
	C1174.527588,417.186188 1161.251221,417.210052 1148.005127,417.035065 
	C1135.530029,416.870270 1123.050903,416.999725 1110.000000,416.999725 
	C1110.000000,437.975433 1110.000000,458.737732 1110.000000,480.000000 
M1232.000366,331.555084 
	C1231.666504,327.983124 1231.997681,324.181458 1230.859619,320.887299 
	C1228.532349,314.150177 1226.533081,306.859070 1222.400879,301.274353 
	C1212.587158,288.011017 1198.256226,283.056458 1182.100952,283.013428 
	C1160.955811,282.957092 1139.810303,282.999542 1118.665039,282.999512 
	C1115.882568,282.999512 1113.099976,282.999512 1110.195923,282.999512 
	C1110.195923,316.836304 1110.195923,350.217560 1110.195923,383.516388 
	C1110.677124,383.723236 1110.964355,383.956940 1111.248779,383.953369 
	C1135.640259,383.647705 1160.037354,383.544586 1184.420532,382.910309 
	C1197.124512,382.579803 1208.289673,377.472687 1217.526367,368.847321 
	C1227.953125,359.110535 1232.422607,346.719421 1232.000366,331.555084 
z"/>
<path fill="#FFFFFF" opacity="1.000000" stroke="none" 
	d="
M791.750854,508.253723 
	C780.631226,495.541473 774.850342,480.671478 770.999084,464.879913 
	C767.648682,451.141663 767.961670,437.153656 767.975708,423.163391 
	C768.033752,365.340515 768.000000,307.517517 768.000000,249.000519 
	C774.997192,249.000519 781.915955,249.000519 788.834717,249.000519 
	C793.501038,249.000519 798.191467,249.295288 802.826660,248.915573 
	C807.240662,248.553970 808.113831,250.383163 808.077820,254.386749 
	C807.904114,273.716980 807.999634,293.049652 807.999634,312.381439 
	C807.999634,354.544739 807.624390,396.713165 808.195557,438.868713 
	C808.406067,454.404968 811.611328,469.807068 820.646301,483.018341 
	C829.555298,496.045746 842.337585,504.016388 857.712524,506.815125 
	C868.441406,508.768158 879.522766,510.111298 890.376221,509.728790 
	C905.080933,509.210541 919.566833,506.172272 932.043579,497.427002 
	C945.017944,488.332947 952.818176,475.660126 955.871094,460.314056 
	C957.580750,451.720367 958.790405,442.877411 958.873047,434.134003 
	C959.447388,373.388580 959.666931,312.639832 959.999695,251.892151 
	C960.004089,251.091873 960.000366,250.291580 960.000366,249.002563 
	C972.569397,249.002563 984.845093,248.930664 997.115967,249.139603 
	C998.093567,249.156250 999.317749,250.981186 999.907593,252.214401 
	C1000.361755,253.163956 999.999390,254.504257 999.999390,255.670837 
	C999.999512,314.999451 1000.245911,374.329651 999.865967,433.655823 
	C999.733398,454.358093 995.652832,474.546631 985.920898,493.098206 
	C977.793701,508.590637 965.782349,520.540771 950.386719,528.901855 
	C936.012573,536.708069 920.630066,541.261719 904.243530,541.965942 
	C892.334656,542.477722 880.369629,543.461548 868.504395,542.830017 
	C845.574829,541.609680 823.952637,535.483398 805.255005,521.544312 
	C800.334412,517.875977 796.395447,512.890869 791.750854,508.253723 
z"/>
<path fill="#FFFFFF" opacity="1.000000" stroke="none" 
	d="
M1687.000000,451.000000 
	C1687.000000,469.475586 1687.000000,487.451172 1687.000000,505.820984 
	C1735.617920,505.820984 1784.019775,505.820984 1832.710083,505.820984 
	C1832.710083,517.281738 1832.710083,528.353699 1832.710083,539.713928 
	C1771.379517,539.713928 1709.979980,539.713928 1648.290283,539.713928 
	C1648.290283,443.057220 1648.290283,346.327789 1648.290283,249.299301 
	C1709.595581,249.299301 1770.994995,249.299301 1832.697266,249.299301 
	C1832.697266,260.255249 1832.697266,271.327423 1832.697266,282.797119 
	C1784.403809,282.797119 1736.001953,282.797119 1687.300537,282.797119 
	C1687.300537,313.259064 1687.300537,343.328674 1687.300537,373.794739 
	C1731.924561,373.794739 1776.660156,373.794739 1821.987061,373.794739 
	C1821.987061,384.272247 1822.100220,394.369415 1821.791870,404.453735 
	C1821.764526,405.345551 1819.005859,406.846893 1817.485474,406.885986 
	C1808.492676,407.117249 1799.490723,407.000000 1790.491943,407.000000 
	C1757.829590,407.000000 1725.167236,407.000000 1692.504883,407.000000 
	C1690.860352,407.000000 1689.215942,407.000000 1687.000000,407.000000 
	C1687.000000,421.641998 1687.000000,436.071014 1687.000000,451.000000 
z"/>
<path fill="#FFFFFF" opacity="1.000000" stroke="none" 
	d="
M2374.000000,540.000000 
	C2364.856445,540.000000 2356.212646,540.000000 2347.285645,540.000000 
	C2347.285645,443.044678 2347.285645,346.312225 2347.285645,249.290024 
	C2367.283691,249.290024 2387.354736,249.290024 2407.821533,249.290024 
	C2407.821533,327.622101 2407.821533,406.023102 2407.821533,484.821472 
	C2448.616455,484.821472 2489.020752,484.821472 2529.711670,484.821472 
	C2529.711670,503.287048 2529.711670,521.358276 2529.711670,540.000000 
	C2478.018066,540.000000 2426.259033,540.000000 2374.000000,540.000000 
z"/>
<path fill="#FFFFFF" opacity="1.000000" stroke="none" 
	d="
M2089.113770,254.042969 
	C2088.975098,254.638229 2088.836426,255.233505 2088.044434,255.975525 
	C2086.941895,257.119629 2086.492188,258.116974 2086.042480,259.114319 
	C2081.145264,268.127106 2076.364014,277.205109 2071.323730,286.137146 
	C2063.979492,299.151978 2056.442139,312.057892 2048.999756,325.017395 
	C2039.796143,341.043610 2030.592041,357.069580 2021.412476,373.109558 
	C2012.075317,389.424408 2002.727905,405.733887 1993.523071,422.123260 
	C1992.796021,423.417542 1993.019653,425.318024 1993.018555,426.936981 
	C1992.993896,462.759796 1992.931641,498.582947 1993.088745,534.405090 
	C1993.107544,538.703064 1992.066162,540.252136 1987.541504,540.102600 
	C1977.555420,539.772461 1967.544556,539.793152 1957.556641,540.095398 
	C1953.182373,540.227844 1951.879028,538.951172 1951.902588,534.503601 
	C1952.081055,500.847748 1951.874878,467.189667 1952.103394,433.534454 
	C1952.150269,426.636993 1950.949829,420.645721 1947.347046,414.567902 
	C1933.990479,392.036041 1921.097900,369.227997 1908.140747,346.461182 
	C1897.809814,328.308807 1887.698730,310.031342 1877.375488,291.874512 
	C1870.149170,279.164673 1862.708740,266.576599 1855.427490,253.897690 
	C1854.661255,252.563599 1854.324097,250.983170 1853.599243,249.001175 
	C1867.679443,249.001175 1881.147705,248.883179 1894.607666,249.168472 
	C1896.089600,249.199890 1898.027100,251.264832 1898.900513,252.854996 
	C1908.030396,269.478271 1916.929199,286.228302 1926.003174,302.882629 
	C1941.071411,330.539185 1956.218262,358.153015 1971.359985,385.769501 
	C1971.651733,386.301422 1972.286621,386.645142 1973.243530,387.514984 
	C1989.675415,357.238770 2005.956055,327.241333 2022.927002,297.076965 
	C2025.058228,293.908569 2026.498901,290.907104 2027.939575,287.905609 
	C2027.939575,287.905609 2027.984009,287.986359 2028.305908,287.945404 
	C2030.398438,284.238190 2032.169067,280.571930 2033.939697,276.905640 
	C2033.939575,276.905609 2033.984009,276.986359 2034.302979,276.945984 
	C2037.709351,271.787689 2040.817139,266.681610 2043.822510,261.515961 
	C2043.969482,261.263306 2043.219116,260.488617 2042.886475,259.957031 
	C2043.341797,258.713043 2043.797241,257.469025 2044.932007,256.068756 
	C2049.020020,251.412720 2053.600586,250.609436 2058.996094,250.894897 
	C2066.771240,251.306244 2074.594727,250.774475 2082.374512,251.139664 
	C2084.661377,251.246994 2086.869629,253.028641 2089.113770,254.042969 
z"/>
<path fill="#FFFFFF" opacity="1.000000" stroke="none" 
	d="
M2563.000000,380.000000 
	C2563.000000,337.845856 2563.063232,296.191437 2562.906738,254.537888 
	C2562.890137,250.153687 2564.084229,248.837921 2568.513428,248.901062 
	C2585.671631,249.145676 2602.836426,249.116577 2619.995605,248.914352 
	C2624.002686,248.867142 2625.081055,250.107880 2625.076660,254.047256 
	C2624.977295,347.685669 2624.977539,441.324280 2625.077881,534.962708 
	C2625.082031,538.915100 2623.980225,540.132263 2619.986328,540.085571 
	C2602.826904,539.885071 2585.662109,539.853394 2568.504150,540.100220 
	C2564.061035,540.164124 2562.895996,538.823059 2562.908203,534.453491 
	C2563.051025,483.135986 2563.000000,431.817902 2563.000000,380.000000 
z"/>
<path fill="#FFFFFF" opacity="1.000000" stroke="none" 
	d="
M369.729675,501.680542 
	C362.773865,519.307800 350.126282,530.560974 332.687592,535.778381 
	C323.170746,538.625610 313.059509,539.741211 303.129150,540.872681 
	C294.786438,541.823303 286.311768,541.565918 277.907166,542.046753 
	C274.329681,542.251404 272.824097,541.249878 272.921600,537.354980 
	C273.162476,527.734863 273.000549,518.104675 273.000549,508.000488 
	C279.243042,508.000488 285.241119,508.517426 291.112457,507.875549 
	C299.280823,506.982513 307.709290,506.247589 315.385376,503.592041 
	C326.967834,499.585052 333.417206,489.979584 335.830475,478.326508 
	C337.671570,469.436554 338.832581,460.236359 338.867035,451.168732 
	C339.115845,385.713379 339.000458,320.256653 339.000488,254.800369 
	C339.000488,253.008591 339.000488,251.216797 339.000488,249.001678 
	C351.135406,249.001678 362.912750,248.914276 374.683960,249.142715 
	C375.808289,249.164520 377.102661,251.024048 377.916443,252.288849 
	C378.371277,252.995804 377.999481,254.234940 377.999481,255.234268 
	C377.999603,322.855774 378.203918,390.478394 377.838898,458.097961 
	C377.759521,472.802032 375.626343,487.492493 369.729675,501.680542 
z"/>
<path fill="#37B7FF" opacity="1.000000" stroke="none" 
	d="
M2276.952393,655.000000 
	C2293.623291,653.541199 2305.120361,663.607117 2308.381348,676.933960 
	C2311.725830,690.600769 2304.611328,704.573181 2291.794189,709.841187 
	C2288.007324,711.397583 2283.553955,711.890686 2279.401367,711.910583 
	C2246.096924,712.070435 2212.774414,711.383911 2179.493896,712.288635 
	C2165.221680,712.676697 2150.311523,697.618408 2150.585693,683.713440 
	C2150.820557,671.780945 2160.291260,658.339172 2171.763428,655.741821 
	C2173.490967,655.350647 2175.282471,655.033203 2177.044678,655.030945 
	C2210.183350,654.989136 2243.322266,655.000122 2276.952393,655.000000 
z"/>
<path fill="#37B7FF" opacity="1.000000" stroke="none" 
	d="
M840.202881,129.527420 
	C833.445190,112.086098 842.230286,93.586517 860.173767,89.369247 
	C861.603088,89.033318 863.130127,89.015541 864.611877,89.014748 
	C899.440186,88.996201 934.268494,88.989510 969.096802,89.004990 
	C986.160095,89.012573 999.969666,108.088493 995.065674,124.410378 
	C991.799316,135.281906 985.114990,142.369125 974.158447,145.320831 
	C972.450012,145.781082 970.618774,145.970184 968.844055,145.972122 
	C934.848938,146.009369 900.853760,145.951416 866.858826,146.025681 
	C854.648438,146.052353 846.138367,140.295700 840.202881,129.527420 
z"/>
<path fill="#37B7FF" opacity="1.000000" stroke="none" 
	d="
M2343.337402,706.831909 
	C2334.931152,699.845459 2331.511719,691.418457 2331.806885,680.663208 
	C2332.133789,668.751526 2345.827637,655.385437 2358.021240,654.724304 
	C2373.717041,653.873291 2385.492188,664.611084 2388.376221,675.907043 
	C2393.223145,694.890259 2379.003662,711.912415 2362.084961,712.117737 
	C2355.268311,712.200439 2349.200928,710.845398 2343.337402,706.831909 
z"/>
<path fill="#37B7FF" opacity="1.000000" stroke="none" 
	d="
M780.153809,92.974556 
	C795.330261,83.911095 815.190369,90.141197 821.859558,105.787720 
	C829.866394,124.572540 816.759216,145.117706 797.510010,146.134689 
	C783.735718,146.862427 772.081665,137.669098 768.705200,128.214050 
	C765.192017,118.376396 766.027100,104.896408 776.818848,95.672371 
	C777.823730,94.813461 778.794250,93.914391 780.153809,92.974556 
z"/>
<path fill="#FFFFFF" opacity="1.000000" stroke="none" 
	d="
M2181.505615,416.061432 
	C2182.786377,415.409790 2184.528564,414.096558 2186.275146,414.090118 
	C2219.535156,413.968079 2252.795898,414.066010 2286.054932,413.876434 
	C2288.753662,413.861053 2291.442139,412.095978 2294.484375,411.071808 
	C2295.917969,416.315552 2292.190918,415.985535 2288.885010,415.987732 
	C2257.909424,416.008301 2226.933594,415.999634 2195.958008,416.000336 
	C2191.294922,416.000458 2186.632080,416.005432 2181.505615,416.061432 
z"/>
<path fill="#FFFFFF" opacity="1.000000" stroke="none" 
	d="
M2731.055420,251.547974 
	C2710.510742,251.971848 2689.906250,251.934769 2669.303711,252.086517 
	C2667.430908,252.100296 2665.566895,253.326965 2663.435547,254.403046 
	C2662.517334,253.366638 2661.862305,251.917587 2660.994873,249.998566 
	C2663.093018,249.634430 2664.918945,249.047791 2666.747070,249.041656 
	C2686.556152,248.975327 2706.365967,248.950668 2726.174316,249.092743 
	C2727.786621,249.104309 2729.389160,250.425552 2731.055420,251.547974 
z"/>
<path fill="#FFFFFF" opacity="1.000000" stroke="none" 
	d="
M2089.436035,253.902863 
	C2086.869629,253.028641 2084.661377,251.246994 2082.374512,251.139664 
	C2074.594727,250.774475 2066.771240,251.306244 2058.996094,250.894897 
	C2053.600586,250.609436 2049.020020,251.412720 2045.248535,255.935181 
	C2046.055176,253.690842 2047.224731,251.423752 2048.218262,249.497910 
	C2062.786377,249.497910 2077.153320,249.497910 2091.973145,249.497910 
	C2091.033203,251.307755 2090.395752,252.535263 2089.436035,253.902863 
z"/>
<path fill="#FFFFFF" opacity="1.000000" stroke="none" 
	d="
M2747.973633,281.624207 
	C2747.092773,281.605835 2745.558594,281.564667 2745.128418,280.854706 
	C2740.391602,273.037659 2735.790527,265.136932 2731.278564,257.187561 
	C2730.899902,256.519653 2731.428711,255.336609 2731.822754,254.172913 
	C2737.350586,263.065582 2742.591797,272.178223 2747.973633,281.624207 
z"/>
<path fill="#FFFFFF" opacity="1.000000" stroke="none" 
	d="
M2042.560547,260.101440 
	C2043.219116,260.488617 2043.969482,261.263306 2043.822510,261.515961 
	C2040.817139,266.681610 2037.709351,271.787689 2034.262695,276.923706 
	C2036.680420,271.376465 2039.457520,265.811188 2042.560547,260.101440 
z"/>
<path fill="#FFFFFF" opacity="1.000000" stroke="none" 
	d="
M2033.608643,277.042969 
	C2032.169067,280.571930 2030.398438,284.238190 2028.265625,287.923126 
	C2029.694702,284.354645 2031.486084,280.767487 2033.608643,277.042969 
z"/>
<path fill="#FFFFFF" opacity="1.000000" stroke="none" 
	d="
M2027.609375,288.042236 
	C2026.498901,290.907104 2025.058228,293.908569 2023.251465,296.933960 
	C2024.349976,294.031494 2025.814575,291.105164 2027.609375,288.042236 
z"/>
<path fill="#FFFFFF" opacity="1.000000" stroke="none" 
	d="
M2086.353027,258.991974 
	C2086.492188,258.116974 2086.941895,257.119629 2087.752930,256.082153 
	C2087.631104,256.984558 2087.147461,257.927063 2086.353027,258.991974 
z"/>
<path fill="#000000" opacity="1.000000" stroke="none" 
	d="
M506.256775,302.244263 
	C519.193848,290.054199 533.796204,281.908508 551.349792,280.055695 
	C560.807800,279.057434 570.390869,277.645111 579.810242,278.209625 
	C600.144653,279.428223 619.009033,284.782440 634.832336,299.075684 
	C651.130127,313.797516 660.213440,332.183929 664.842468,353.005371 
	C667.089905,363.114777 668.149353,373.562408 668.859558,383.917755 
	C669.519470,393.539978 669.825378,403.328217 668.837769,412.893707 
	C666.379761,436.701630 660.794128,459.784515 645.406067,478.891602 
	C631.994324,495.544739 614.730286,506.499023 592.965759,508.955353 
	C584.503906,509.910370 575.945251,511.189484 567.495178,510.825409 
	C548.896667,510.024048 530.960327,506.045654 515.540955,494.810822 
	C501.917816,484.884796 492.279663,471.589874 486.139008,456.055969 
	C480.117584,440.823700 477.060699,424.923889 475.764954,408.440125 
	C473.881622,384.480499 476.416199,361.286621 484.074432,338.661224 
	C488.676208,325.065796 495.540161,312.636627 506.256775,302.244263 
z"/>
<path fill="#000000" opacity="1.000000" stroke="none" 
	d="
M1232.000366,332.036621 
	C1232.422607,346.719421 1227.953125,359.110535 1217.526367,368.847321 
	C1208.289673,377.472687 1197.124512,382.579803 1184.420532,382.910309 
	C1160.037354,383.544586 1135.640259,383.647705 1111.248779,383.953369 
	C1110.964355,383.956940 1110.677124,383.723236 1110.195923,383.516388 
	C1110.195923,350.217560 1110.195923,316.836304 1110.195923,282.999512 
	C1113.099976,282.999512 1115.882568,282.999512 1118.665039,282.999512 
	C1139.810303,282.999542 1160.955811,282.957092 1182.100952,283.013428 
	C1198.256226,283.056458 1212.587158,288.011017 1222.400879,301.274353 
	C1226.533081,306.859070 1228.532349,314.150177 1230.859619,320.887299 
	C1231.997681,324.181458 1231.666504,327.983124 1232.000366,332.036621 
z"/>
</svg>